<svg width="82" height="82" viewBox="0 0 82 82" fill="none" xmlns="http://www.w3.org/2000/svg">
<g filter="url(#filter0_ii_15_115)">
<path d="M41.0515 66.9368C40.1643 67.8447 39.2547 68.2714 38.3544 68.3441C38.6685 69.4833 39.8024 71.4855 41.8253 70.3804C41.336 69.2841 41.1064 68.0478 41.0515 66.9368Z" fill="#903939"/>
<path fill-rule="evenodd" clip-rule="evenodd" d="M18.4712 26.289C26.0141 4.86026 42.6675 16.4658 50.0512 24.9472C61.3601 24.0449 78.3697 25.8926 68.5261 47.2573C61.806 61.8428 50.5163 71.1387 49.1707 71.2381C44.5419 73.8398 42.9602 72.9228 41.8253 70.3804C41.336 69.2841 41.1064 68.0478 41.0515 66.9368C40.1643 67.8447 39.2547 68.2714 38.3544 68.3441C36.6231 68.4838 36.1338 68.4229 35.0566 67.1767C34.0416 66.0026 33.2707 64.4799 32.8236 63.2641C31.7183 64.5935 30.5796 65.3753 29.4838 65.7805C26.9034 66.7348 24.5609 65.6006 23.4529 64.6113C18.6495 60.7659 10.9282 47.7178 18.4712 26.289Z" fill="#C05149"/>
<path d="M32.8236 63.2641C31.7183 64.5935 30.5796 65.3753 29.4838 65.7805C30.0705 67.2772 32.0063 69.6518 35.0566 67.1767C34.0416 66.0026 33.2707 64.4799 32.8236 63.2641Z" fill="#903939"/>
</g>
<path d="M26.6742 22.7765C30.9847 13.4313 40.4078 20.8642 44.5805 25.7489C31.043 13.3149 27.5923 25.5216 27.5591 33.1792C25.4681 33.6055 22.3636 32.1218 26.6742 22.7765Z" fill="white" fill-opacity="0.49"/>
<path d="M27.5616 36.2162C26.7391 37.1117 24.6863 35.558 23.7627 34.6692C23.7778 36.0184 24.1263 39.0576 25.3991 40.4209C26.9901 42.125 28.5897 35.0969 27.5616 36.2162Z" fill="white" fill-opacity="0.49"/>
<path d="M54.2729 15.5932C49.8478 16.2874 48.3854 24.9548 48.2073 29.2017C50.2739 23.0396 53.2715 19.3267 54.5119 18.2405C56.276 17.0688 58.6979 14.899 54.2729 15.5932Z" fill="#603C2C"/>
<mask id="mask0_15_115" style="mask-type:alpha" maskUnits="userSpaceOnUse" x="15" y="14" width="57" height="59">
<path d="M41.0515 66.9368C40.1643 67.8447 39.2547 68.2714 38.3544 68.3441C38.6685 69.4833 39.8024 71.4855 41.8253 70.3804C41.336 69.2841 41.1064 68.0478 41.0515 66.9368Z" fill="#903939"/>
<path fill-rule="evenodd" clip-rule="evenodd" d="M18.4712 26.289C26.0141 4.86026 42.6675 16.4658 50.0512 24.9472C61.3601 24.0449 78.3697 25.8926 68.5261 47.2573C61.806 61.8428 50.5163 71.1387 49.1707 71.2381C44.5419 73.8398 42.9602 72.9228 41.8253 70.3804C41.336 69.2841 41.1064 68.0478 41.0515 66.9368C40.1643 67.8447 39.2547 68.2714 38.3544 68.3441C36.6231 68.4838 36.1338 68.4229 35.0566 67.1767C34.0416 66.0026 33.2707 64.4799 32.8236 63.2641C31.7183 64.5935 30.5796 65.3753 29.4838 65.7805C26.9034 66.7348 24.5609 65.6006 23.4529 64.6113C18.6495 60.7659 10.9282 47.7178 18.4712 26.289Z" fill="#B55454"/>
<path d="M32.8236 63.2641C31.7183 64.5935 30.5796 65.3753 29.4838 65.7805C30.0705 67.2772 32.0063 69.6518 35.0566 67.1767C34.0416 66.0026 33.2707 64.4799 32.8236 63.2641Z" fill="#903939"/>
</mask>
<g mask="url(#mask0_15_115)">
<path d="M45.5535 24.8219C50.441 25.1837 44.1661 18.9753 43.3957 18.7127L59.3228 18.2891C56.1401 19.3313 50.332 22.0246 52.5616 24.4609C55.3485 27.5062 54.1765 26.2711 52.8031 26.7091C52.1843 26.9064 53.1172 31.1249 51.6969 28.9706C50.2767 26.8164 50.2137 27.2814 47.6522 29.5416C45.0907 31.8017 44.8608 30.1338 45.1821 27.2728C45.5035 24.4118 41.4619 24.519 45.5535 24.8219Z" fill="#5A6E89" fill-opacity="0.39" style="mix-blend-mode:multiply"/>
</g>
<mask id="mask1_15_115" style="mask-type:alpha" maskUnits="userSpaceOnUse" x="15" y="14" width="57" height="59">
<path d="M41.0515 66.9368C40.1643 67.8447 39.2547 68.2714 38.3544 68.3441C38.6685 69.4833 39.8024 71.4855 41.8253 70.3804C41.336 69.2841 41.1064 68.0478 41.0515 66.9368Z" fill="#903939"/>
<path fill-rule="evenodd" clip-rule="evenodd" d="M18.4712 26.289C26.0141 4.86026 42.6675 16.4658 50.0512 24.9472C61.3601 24.0449 78.3697 25.8926 68.5261 47.2573C61.806 61.8428 50.5163 71.1387 49.1707 71.2381C44.5419 73.8398 42.9602 72.9228 41.8253 70.3804C41.336 69.2841 41.1064 68.0478 41.0515 66.9368C40.1643 67.8447 39.2547 68.2714 38.3544 68.3441C36.6231 68.4838 36.1338 68.4229 35.0566 67.1767C34.0416 66.0026 33.2707 64.4799 32.8236 63.2641C31.7183 64.5935 30.5796 65.3753 29.4838 65.7805C26.9034 66.7348 24.5609 65.6006 23.4529 64.6113C18.6495 60.7659 10.9282 47.7178 18.4712 26.289Z" fill="#B55454"/>
<path d="M32.8236 63.2641C31.7183 64.5935 30.5796 65.3753 29.4838 65.7805C30.0705 67.2772 32.0063 69.6518 35.0566 67.1767C34.0416 66.0026 33.2707 64.4799 32.8236 63.2641Z" fill="#903939"/>
</mask>
<g mask="url(#mask1_15_115)">
<path d="M45.5535 24.8219C50.441 25.1837 44.1661 18.9753 43.3957 18.7127L59.3228 18.2891C56.1401 19.3313 50.332 22.0246 52.5616 24.4609C55.3485 27.5062 54.1765 26.2711 52.8031 26.7091C52.1843 26.9064 53.1172 31.1249 51.6969 28.9706C50.2767 26.8164 50.2137 27.2814 47.6522 29.5416C45.0907 31.8017 44.8608 30.1338 45.1821 27.2728C45.5035 24.4118 41.4619 24.519 45.5535 24.8219Z" fill="#5A6E89" fill-opacity="0.39" style="mix-blend-mode:multiply"/>
</g>
<defs>
<filter id="filter0_ii_15_115" x="15.3129" y="9.53202" width="57.4151" height="63.2624" filterUnits="userSpaceOnUse" color-interpolation-filters="sRGB">
<feFlood flood-opacity="0" result="BackgroundImageFix"/>
<feBlend mode="normal" in="SourceGraphic" in2="BackgroundImageFix" result="shape"/>
<feColorMatrix in="SourceAlpha" type="matrix" values="0 0 0 0 0 0 0 0 0 0 0 0 0 0 0 0 0 0 127 0" result="hardAlpha"/>
<feOffset dx="0.536415" dy="-6.07937"/>
<feGaussianBlur stdDeviation="2.27976"/>
<feComposite in2="hardAlpha" operator="arithmetic" k2="-1" k3="1"/>
<feColorMatrix type="matrix" values="0 0 0 0 0 0 0 0 0 0 0 0 0 0 0 0 0 0 0.25 0"/>
<feBlend mode="normal" in2="shape" result="effect1_innerShadow_15_115"/>
<feColorMatrix in="SourceAlpha" type="matrix" values="0 0 0 0 0 0 0 0 0 0 0 0 0 0 0 0 0 0 127 0" result="hardAlpha"/>
<feOffset dx="1.25164" dy="-2.68208"/>
<feGaussianBlur stdDeviation="0.750981"/>
<feComposite in2="hardAlpha" operator="arithmetic" k2="-1" k3="1"/>
<feColorMatrix type="matrix" values="0 0 0 0 0.984337 0 0 0 0 0.976847 0 0 0 0 0.534927 0 0 0 0.08 0"/>
<feBlend mode="normal" in2="effect1_innerShadow_15_115" result="effect2_innerShadow_15_115"/>
</filter>
</defs>
</svg>
