<svg width="337" height="303" viewBox="0 0 337 303" fill="none" xmlns="http://www.w3.org/2000/svg" xmlns:xlink="http://www.w3.org/1999/xlink">
<path d="M149.05 255.107C149.377 254.989 149.729 254.926 150.077 254.926L256.046 254.926L281.992 255.515C284.74 255.577 285.783 258.775 283.447 260.222C268.134 269.705 241.952 279.141 238.47 287.279C237.848 288.733 237.057 290.429 235.564 290.949L206.14 301.191C205.832 301.299 205.508 301.355 205.182 301.358L96.9086 302.355C95.6149 302.367 94.4593 301.548 94.0417 300.323L91.2301 292.081C90.9155 291.159 91.0684 290.135 91.6548 289.356C104.883 271.793 120.516 265.444 149.05 255.107Z" fill="#C8C5C5"/>
<path d="M168.653 203.798C169.123 202.738 170.165 202.042 171.324 202.016L249.592 200.218L269.617 201.747C271.64 201.902 272.926 203.987 272.151 205.862C263.473 226.866 257.984 236.533 259.331 254.498C259.424 255.745 258.771 256.938 257.65 257.492L216.641 277.761C216.228 277.965 215.773 278.071 215.312 278.071L161.468 278.071C160.847 278.071 160.241 277.879 159.734 277.519L150.049 270.659C149.11 269.994 148.635 268.841 148.83 267.706C153.565 240.187 158.709 226.19 168.653 203.798Z" fill="#BCB8B8"/>
<path d="M89.3477 51.0768C89.4391 49.5073 90.7266 48.2746 92.2986 48.2516L289.841 45.3549C290.359 45.3473 290.869 45.4739 291.324 45.7223L318.248 60.4433C318.834 60.7635 319.296 61.2699 319.561 61.8822L335.296 98.1751C335.483 98.6058 335.566 99.0743 335.539 99.5429L332.053 159.393C331.992 160.442 331.386 161.383 330.456 161.873L289.725 183.329C289.304 183.551 288.836 183.669 288.359 183.674L92.7221 185.798C91.3309 185.813 90.1118 184.869 89.7775 183.519L83.2945 157.336C83.2221 157.044 83.1941 156.742 83.2117 156.441L89.3477 51.0768Z" fill="#C8C5C5"/>
<path d="M98.1403 239.797C96.5392 239.774 95.2384 238.498 95.185 236.897L92.6678 161.422C92.6303 160.299 93.2242 159.248 94.2063 158.701L112.649 148.429C112.977 148.247 113.335 148.127 113.706 148.077L162.519 141.465C162.666 141.445 162.815 141.436 162.964 141.438L243.257 142.592C243.771 142.599 244.275 142.739 244.721 142.997L271.797 158.726C272.721 159.262 273.29 160.251 273.29 161.32L273.29 216.932C273.29 217.954 272.77 218.905 271.911 219.457L237.872 241.306C237.376 241.624 236.797 241.789 236.208 241.781L98.1403 239.797Z" fill="#C4C4C4"/>
<path fill-rule="evenodd" clip-rule="evenodd" d="M112.467 10.5957C112.166 10.5796 111.864 10.6088 111.572 10.6825L11.7795 35.8506C10.447 36.1867 9.51316 37.3853 9.51316 38.7595L9.51312 179.157C9.51312 179.432 9.55092 179.706 9.62545 179.97L19.4816 214.967C19.8459 216.26 21.0257 217.154 22.3693 217.154L228.664 217.154C228.896 217.154 229.127 217.127 229.353 217.073L259.013 210.071L267.988 62.9826C268.005 62.7097 267.984 62.4358 267.926 62.1685L258.513 18.4478L112.467 10.5957Z" fill="#D9D9D9"/>
<path d="M295.531 51.7635C295.519 51.308 295.404 50.8611 295.194 50.4568L282.612 26.224C282.23 25.4885 281.561 24.9438 280.763 24.719L258.513 18.4478L267.926 62.1685C267.984 62.4358 268.005 62.7097 267.988 62.9826L259.013 210.071L296.906 201.352C298.296 201.032 299.269 199.779 299.233 198.353L295.531 51.7635Z" fill="#D2D2D2"/>
<path d="M27.7032 49.5C27.7032 48.0049 28.8041 46.738 30.2846 46.5294L102.013 36.4222L235.829 33.6229C237.279 33.5925 238.543 34.6037 238.832 36.0248L243.396 58.4848C243.442 58.7136 243.462 58.947 243.454 59.1804L239.583 177.448C239.541 178.72 238.701 179.828 237.487 180.211L193.738 194.014C193.446 194.106 193.141 194.153 192.835 194.153L38.0062 194.153C36.6409 194.153 35.4478 193.231 35.1033 191.91L27.8003 163.903C27.7358 163.656 27.7032 163.401 27.7032 163.146L27.7032 49.5Z" fill="#404040"/>
<g id="Repeat group 8_inner" data-figma-trr="l3u0.7-0f">
<path d="M38.0245 54.0367C66.0771 52.8259 83.0204 50.8835 105.3 49.9219C142.542 48.3145 180.546 47.8111 227.438 45.7872L227.495 50.0726L142.244 52.6421L35.5885 58.3554L38.0245 54.0367Z" fill="#7AA275"/>
<path d="M226.961 55.9444C198.904 57.0527 181.858 56.5151 159.575 57.3953C122.328 58.8667 84.4115 61.5012 37.513 63.3538L37.8095 67.6293L122.982 63.1549L229.745 60.0474L226.961 55.9444Z" fill="#7AA275"/>
</g>
<use xlink:href="#Repeat%20group%208_inner" transform="translate(0 19.2798)"/>
<use xlink:href="#Repeat%20group%208_inner" transform="translate(0 38.5597)"/>
<path d="M37.1869 112.418C55.0525 111.402 65.841 109.577 80.03 108.769C103.748 107.42 127.953 107.179 157.816 105.48L157.86 109.766L103.565 111.745L35.6424 116.72L37.1869 112.418Z" fill="#7AA275"/>
</svg>
