<svg width="324" height="189" viewBox="0 0 324 189" fill="none" xmlns="http://www.w3.org/2000/svg">
<g filter="url(#filter0_d_1_10)">
<path d="M21.5 38C70.5149 16.9424 99.6811 6.2861 161.5 0C201.294 15.9631 209.5 18.5 234 30.5L272.5 85L265.5 137.5L222 159.5L171.5 181C102.725 168.989 71 159.5 25.5 149L4 76L21.5 38Z" fill="#D9D9D9"/>
<path d="M265.5 137.5L222 159.5C259.327 171.784 280.651 176.616 319.5 181C298.049 165.234 279.762 155.649 265.5 137.5Z" fill="#D9D9D9"/>
</g>
<g filter="url(#filter1_d_1_10)">
<path d="M48.8843 123.427C48.0088 123.516 47.306 123.326 46.7758 122.857C46.2496 122.428 45.8873 121.239 45.6888 119.289C45.5065 117.498 45.5879 115.138 45.9329 112.208C46.2739 109.238 46.8013 105.928 47.5152 102.276C48.2291 98.6254 49.0702 94.8408 50.0383 90.9226C51.0024 86.9646 52.0343 83.0801 53.134 79.2691C54.2694 75.4143 55.3776 71.8839 56.4585 68.678C56.8624 67.5111 57.3206 66.6804 57.8331 66.1859C58.3457 65.6915 58.98 65.4058 59.7361 65.3288C60.2534 65.2761 60.7074 65.3908 61.0979 65.6726C61.5242 65.9107 61.7718 66.368 61.8407 67.0445C61.865 67.2832 61.6853 68.0856 61.3017 69.4514C60.9578 70.8133 60.4576 72.6132 59.8008 74.8512C59.1839 77.0852 58.4938 79.5879 57.7306 82.3595C56.9674 85.131 56.1984 88.0439 55.4238 91.098C54.6491 94.1522 53.9362 97.2202 53.2849 100.302C52.6296 103.344 52.1015 106.252 51.7004 109.027C51.2994 111.802 51.0889 114.276 51.0689 116.449C51.9065 115.198 52.8509 113.614 53.9023 111.698C54.9536 109.782 56.0703 107.718 57.2525 105.507C58.4346 103.296 59.6387 101.103 60.8647 98.9273C62.0907 96.7519 63.315 94.7577 64.5376 92.9445C65.7603 91.1314 66.9179 89.6666 68.0105 88.5502C69.1387 87.39 70.1605 86.7633 71.0758 86.6701C72.588 86.5161 73.8503 86.8701 74.8628 87.732C75.9111 88.5501 76.5425 90.0136 76.7572 92.1227C76.8788 93.3166 76.7858 94.7735 76.4785 96.4934C76.2109 98.2094 75.8718 100.013 75.4612 101.904C75.0507 103.796 74.6917 105.601 74.3843 107.321C74.1167 109.037 74.0437 110.492 74.1652 111.686C74.3313 113.317 75.0312 114.07 76.2648 113.945C78.1749 113.75 80.0425 113.138 81.8676 112.108C83.7324 111.074 85.4775 109.851 87.1029 108.439C88.7242 106.987 90.2062 105.55 91.549 104.126C92.8877 102.663 94.0278 101.421 94.9693 100.401C95.9822 99.2925 96.8668 98.6999 97.6228 98.6229C98.5779 98.5257 99.1061 98.9745 99.2074 99.9694C99.2357 100.248 99.2084 100.572 99.1255 100.943C99.0426 101.313 98.7708 101.803 98.3102 102.413C97.7464 103.194 96.9264 104.222 95.85 105.498C94.8134 106.769 93.586 108.141 92.1677 109.612C90.7892 111.079 89.2633 112.481 87.5901 113.817C85.9566 115.149 84.2432 116.289 82.4498 117.235C80.6922 118.138 78.9379 118.678 77.187 118.857C74.7993 119.1 72.88 118.612 71.4291 117.392C70.0139 116.129 69.1827 114.284 68.9356 111.856C68.7816 110.344 68.8341 108.489 69.0928 106.292C69.3516 104.094 69.7176 101.765 70.1908 99.3047C70.6998 96.8002 71.2149 94.3555 71.736 91.9705C70.5517 92.9756 69.2926 94.4306 67.9587 96.3355C66.6605 98.1965 65.307 100.304 63.8982 102.659C62.4854 104.974 61.0767 107.329 59.672 109.724C58.307 112.114 56.9657 114.341 55.648 116.405C54.366 118.426 53.147 120.078 51.9911 121.361C50.8352 122.645 49.7996 123.333 48.8843 123.427ZM117.728 87.7106C117.858 88.9841 117.587 90.2781 116.917 91.5927C116.243 92.8676 115.306 94.129 114.106 95.3769C112.902 96.585 111.553 97.7477 110.058 98.8648C108.564 99.9819 107.057 100.98 105.538 101.858C104.019 102.736 102.625 103.461 101.357 104.033C101.196 105.617 101.177 107.006 101.299 108.2C101.376 108.956 101.609 109.475 102 109.757C102.39 110.039 102.964 110.141 103.72 110.064C105.391 109.894 107.132 109.415 108.941 108.628C110.751 107.841 112.582 106.87 114.435 105.717C116.287 104.563 118.054 103.358 119.736 102.101C121.417 100.845 122.945 99.6637 124.32 98.5588C125.735 97.4497 126.91 96.5461 127.844 95.848C128.778 95.1498 129.404 94.7845 129.723 94.7521C130.2 94.7034 130.575 94.8262 130.846 95.1202C131.153 95.3704 131.326 95.6945 131.367 96.0924C131.399 96.4108 130.965 97.0782 130.063 98.0948C129.201 99.1073 128.017 100.313 126.511 101.713C125.001 103.073 123.296 104.493 121.396 105.973C119.496 107.453 117.509 108.862 115.434 110.199C113.398 111.532 111.4 112.64 109.439 113.523C107.519 114.402 105.762 114.922 104.171 115.084C102.101 115.295 100.411 114.683 99.0986 113.249C97.7865 111.814 96.9644 109.465 96.6322 106.202C96.4094 104.014 96.4632 101.777 96.7934 99.4914C97.1635 97.2022 97.7426 94.9921 98.5309 92.8614C99.3549 90.6867 100.303 88.7407 101.374 87.0234C102.482 85.2622 103.685 83.853 104.985 82.796C106.28 81.6991 107.585 81.0839 108.898 80.9502C111.405 80.695 113.446 81.1908 115.02 82.4378C116.594 83.6848 117.497 85.4424 117.728 87.7106ZM102.142 99.3087C103.299 98.4271 104.491 97.5015 105.72 96.5322C106.948 95.5628 108.074 94.5837 109.099 93.5948C110.125 92.6059 110.927 91.5994 111.506 90.5755C112.121 89.5077 112.376 88.4565 112.271 87.4219C112.121 85.9495 111.25 85.2943 109.658 85.4563C108.663 85.5576 107.674 86.3017 106.689 87.6885C105.74 89.0315 104.869 90.7485 104.077 92.8395C103.285 94.9305 102.64 97.0869 102.142 99.3087ZM140.249 113.824C137.184 114.136 134.676 113.386 132.722 111.575C130.804 109.719 129.661 106.981 129.292 103.36C129.066 101.131 129.099 98.4945 129.392 95.4492C129.721 92.36 130.192 89.0954 130.807 85.6555C131.458 82.1717 132.192 78.7196 133.01 75.2991C133.827 71.8787 134.63 68.7011 135.417 65.7664C136.239 62.7877 136.971 60.3008 137.612 58.3056C137.98 57.1826 138.602 56.5765 139.478 56.4874C140.672 56.3658 141.343 57.0412 141.493 58.5136C141.542 58.9912 141.422 59.9884 141.134 61.5054C140.847 63.0223 140.456 64.9116 139.962 67.1732C139.465 69.395 138.932 71.8617 138.364 74.5732C137.795 77.2847 137.215 80.0778 136.623 82.9525C136.067 85.7834 135.569 88.5883 135.128 91.3672C134.683 94.1064 134.361 96.6722 134.162 99.0646C133.964 101.457 133.949 103.489 134.12 105.16C134.229 106.235 134.595 107.062 135.217 107.642C135.874 108.178 136.701 108.396 137.695 108.294C139.526 108.108 141.32 107.563 143.078 106.661C144.871 105.714 146.569 104.617 148.17 103.368C149.768 102.08 151.209 100.827 152.492 99.611C153.811 98.3509 154.932 97.3121 155.854 96.4945C156.772 95.6372 157.43 95.1882 157.827 95.1477C158.703 95.0586 159.189 95.4916 159.287 96.4466C159.319 96.765 159.061 97.3943 158.514 98.3346C157.962 99.2351 157.208 100.317 156.251 101.58C155.294 102.844 154.162 104.165 152.855 105.545C151.584 106.88 150.227 108.164 148.784 109.397C147.377 110.585 145.93 111.577 144.443 112.372C143 113.202 141.602 113.686 140.249 113.824ZM167.879 111.011C164.815 111.323 162.306 110.573 160.353 108.762C158.435 106.907 157.292 104.168 156.923 100.547C156.696 98.3186 156.729 95.6817 157.022 92.6363C157.351 89.5472 157.823 86.2826 158.438 82.8426C159.088 79.3588 159.823 75.9067 160.64 72.4863C161.458 69.0659 162.26 65.8883 163.047 62.9536C163.87 59.9749 164.602 57.488 165.243 55.4928C165.611 54.3698 166.233 53.7637 167.108 53.6745C168.302 53.553 168.974 54.2284 169.124 55.7008C169.173 56.1784 169.053 57.1756 168.765 58.6926C168.477 60.2095 168.087 62.0988 167.593 64.3604C167.096 66.5822 166.563 69.0489 165.994 71.7604C165.426 74.4719 164.846 77.265 164.254 80.1397C163.698 82.9706 163.199 85.7755 162.759 88.5544C162.314 91.2936 161.992 93.8593 161.793 96.2518C161.594 98.6442 161.58 100.676 161.75 102.347C161.86 103.422 162.225 104.249 162.847 104.829C163.505 105.365 164.331 105.583 165.326 105.481C167.157 105.295 168.951 104.751 170.708 103.848C172.502 102.901 174.199 101.804 175.801 100.555C177.399 99.2668 178.839 98.0145 180.123 96.7982C181.442 95.5381 182.562 94.4993 183.484 93.6817C184.402 92.8244 185.06 92.3754 185.458 92.3349C186.334 92.2458 186.82 92.6788 186.917 93.6338C186.95 93.9522 186.692 94.5815 186.144 95.5218C185.593 96.4223 184.838 97.5043 183.881 98.7677C182.925 100.031 181.793 101.353 180.486 102.732C179.214 104.068 177.857 105.352 176.415 106.584C175.008 107.773 173.561 108.764 172.074 109.559C170.63 110.389 169.232 110.874 167.879 111.011ZM192.859 106.659C190.511 106.898 188.57 106.191 187.034 104.538C185.499 102.885 184.586 100.626 184.294 97.7607C184.189 96.7261 184.217 95.6175 184.378 94.4351C184.574 93.2089 184.863 92.0939 185.243 91.0903C184.936 90.8401 184.679 90.4843 184.471 90.023C184.259 89.5219 184.115 88.8932 184.038 88.1372C183.799 85.7893 183.978 83.5999 184.576 81.5689C185.173 79.538 186.055 77.7394 187.223 76.1731C188.386 74.567 189.723 73.285 191.234 72.3271C192.784 71.3651 194.395 70.7991 196.067 70.6289C198.812 70.3494 201.142 71.1174 203.056 72.9329C204.966 74.7086 206.125 77.6061 206.534 81.6253C206.749 83.7344 206.649 85.9157 206.235 88.1692C205.861 90.4187 205.24 92.6129 204.372 94.7518C203.544 96.8866 202.515 98.8208 201.284 100.554C200.093 102.284 198.77 103.705 197.316 104.818C195.897 105.887 194.411 106.501 192.859 106.659ZM188.976 88.6597C189.248 88.9538 189.409 89.3594 189.462 89.8768C189.523 90.4737 189.464 91.0827 189.286 91.704C189.148 92.3211 189.012 93.1592 188.879 94.2182C188.745 95.2771 188.776 96.7617 188.97 98.6718C189.165 100.582 190.018 101.46 191.53 101.306C193.202 101.136 194.687 100.321 195.986 98.8623C197.281 97.3634 198.378 95.5027 199.277 93.2802C200.177 91.0577 200.803 88.7222 201.157 86.2738C201.547 83.7815 201.632 81.4609 201.414 79.312C201.272 77.9192 200.914 76.9706 200.34 76.4661C199.762 75.9219 198.796 75.7186 197.443 75.8564C196.05 75.9982 194.646 76.6236 193.232 77.7326C191.852 78.7977 190.746 80.1768 189.913 81.8699C189.081 83.5629 188.766 85.4043 188.968 87.394C189.013 87.8318 189.015 88.2537 188.976 88.6597ZM220.239 88.372C219.881 88.4085 219.544 88.2618 219.229 87.932C218.95 87.5584 218.778 87.0532 218.713 86.4165C218.624 85.541 218.643 84.1519 218.771 82.2492C218.935 80.3026 219.168 78.0474 219.47 75.4837C219.807 72.8761 220.215 70.1609 220.691 67.3381C221.207 64.5113 221.77 61.7401 222.378 59.0245C222.982 56.2692 223.616 53.8123 224.281 51.6539C224.736 50.2003 225.402 49.429 226.277 49.3398C227.192 49.2467 228.073 49.5993 228.918 50.3978C229.763 51.1963 230.25 52.2323 230.38 53.5057C230.429 53.9832 230.281 54.9029 229.937 56.2647C229.633 57.6225 229.198 59.2751 228.633 61.2224C228.107 63.1656 227.515 65.2563 226.859 67.4943C226.202 69.7323 225.529 72.0121 224.841 74.3338C224.188 76.6116 223.583 78.7639 223.026 80.7908C222.468 82.8177 222.043 84.5698 221.751 86.0469C221.562 86.9507 221.362 87.5541 221.152 87.857C220.941 88.1598 220.637 88.3315 220.239 88.372ZM218.528 106.519C217.931 106.579 217.28 106.304 216.574 105.692C215.869 105.081 215.411 103.74 215.2 101.671C215.082 100.517 215.373 99.6227 216.073 98.9886C216.768 98.3147 217.713 97.917 218.907 97.7954C220.936 97.5888 222.058 98.5401 222.273 100.649C222.374 101.644 222.227 102.564 221.83 103.408C221.438 104.293 220.927 105.008 220.3 105.554C219.715 106.136 219.125 106.458 218.528 106.519Z" fill="#555555"/>
</g>
<defs>
<filter id="filter0_d_1_10" x="0" y="0" width="323.5" height="189" filterUnits="userSpaceOnUse" color-interpolation-filters="sRGB">
<feFlood flood-opacity="0" result="BackgroundImageFix"/>
<feColorMatrix in="SourceAlpha" type="matrix" values="0 0 0 0 0 0 0 0 0 0 0 0 0 0 0 0 0 0 127 0" result="hardAlpha"/>
<feOffset dy="4"/>
<feGaussianBlur stdDeviation="2"/>
<feComposite in2="hardAlpha" operator="out"/>
<feColorMatrix type="matrix" values="0 0 0 0 0 0 0 0 0 0 0 0 0 0 0 0 0 0 0.25 0"/>
<feBlend mode="normal" in2="BackgroundImageFix" result="effect1_dropShadow_1_10"/>
<feBlend mode="normal" in="SourceGraphic" in2="effect1_dropShadow_1_10" result="shape"/>
</filter>
<filter id="filter1_d_1_10" x="36.3232" y="47.2978" width="203.277" height="84.7664" filterUnits="userSpaceOnUse" color-interpolation-filters="sRGB">
<feFlood flood-opacity="0" result="BackgroundImageFix"/>
<feColorMatrix in="SourceAlpha" type="matrix" values="0 0 0 0 0 0 0 0 0 0 0 0 0 0 0 0 0 0 127 0" result="hardAlpha"/>
<feOffset dy="4"/>
<feGaussianBlur stdDeviation="2"/>
<feComposite in2="hardAlpha" operator="out"/>
<feColorMatrix type="matrix" values="0 0 0 0 0 0 0 0 0 0 0 0 0 0 0 0 0 0 0.25 0"/>
<feBlend mode="normal" in2="BackgroundImageFix" result="effect1_dropShadow_1_10"/>
<feBlend mode="normal" in="SourceGraphic" in2="effect1_dropShadow_1_10" result="shape"/>
</filter>
</defs>
</svg>
