<svg width="227" height="140" viewBox="0 0 227 140" fill="none" xmlns="http://www.w3.org/2000/svg">
<g filter="url(#filter0_d_1_11)">
<path d="M209.333 27.2936C174.158 13.3157 153.263 6.32735 109.295 3.07637C81.3824 15.1756 75.6121 17.1352 58.4697 26.1248L32.2279 65.5313L41.4502 91.3452L64.2326 112L105.738 131.647C154.282 121.785 176.598 114.435 208.664 106.099L222.487 53.9035L209.333 27.2936Z" fill="#D9D9D9"/>
<path d="M41.4502 91.3452L64.2326 112C37.9983 121.442 31.4686 119.385 4.00001 123.253C18.9064 111.651 31.6891 104.496 41.4502 91.3452Z" fill="#D9D9D9"/>
</g>
<g filter="url(#filter1_d_1_11)">
<path d="M97.5126 92.1198C96.8106 92.236 96.2338 92.1184 95.7822 91.7669C95.3359 91.4474 94.9834 90.5058 94.7245 88.9423C94.4869 87.5063 94.4332 85.5974 94.5634 83.2154C94.6884 80.8015 94.9466 78.1032 95.3381 75.1206C95.7296 72.1381 96.2169 69.0413 96.8 65.8303C97.3779 62.5874 98.0142 59.4004 98.7089 56.2693C99.4303 53.101 100.146 50.1958 100.856 47.5539C101.123 46.5918 101.451 45.8983 101.839 45.4733C102.228 45.0484 102.726 44.7857 103.332 44.6853C103.747 44.6167 104.119 44.6862 104.448 44.894C104.804 45.0645 105.027 45.421 105.117 45.9635C105.149 46.1549 105.044 46.8115 104.804 47.9332C104.595 49.0496 104.282 50.5274 103.866 52.3668C103.481 54.2008 103.05 56.2555 102.575 58.5307C102.099 60.806 101.626 63.1956 101.155 65.6995C100.684 68.2035 100.264 70.7154 99.8944 73.2354C99.5195 75.7235 99.2403 78.0973 99.057 80.357C98.8737 82.6166 98.829 84.6239 98.9227 86.3787C99.5354 85.3265 100.217 84.0006 100.969 82.401C101.721 80.8013 102.517 79.0794 103.36 77.2352C104.202 75.391 105.062 73.5602 105.942 71.7426C106.821 69.9251 107.708 68.2538 108.603 66.7287C109.498 65.2037 110.359 63.963 111.184 63.0068C112.036 62.0134 112.829 61.456 113.562 61.3345C114.775 61.1338 115.812 61.3556 116.672 62C117.56 62.6071 118.143 63.7563 118.423 65.4475C118.582 66.4048 118.58 67.5852 118.419 68.9888C118.29 70.3871 118.108 71.8598 117.872 73.4069C117.636 74.954 117.438 76.4293 117.277 77.8329C117.148 79.2312 117.162 80.409 117.321 81.3663C117.537 82.6746 118.14 83.2468 119.129 83.0831C120.661 82.8296 122.137 82.241 123.558 81.3174C125.011 80.3885 126.357 79.3132 127.597 78.0916C128.832 76.8381 129.956 75.6031 130.967 74.3865C131.974 73.1381 132.831 72.0782 133.539 71.207C134.301 70.2613 134.984 69.7383 135.591 69.638C136.357 69.5112 136.806 69.8467 136.938 70.6445C136.975 70.8678 136.969 71.131 136.921 71.4341C136.873 71.7371 136.678 72.1463 136.337 72.6617C135.922 73.3206 135.312 74.1919 134.508 75.2758C133.736 76.3543 132.814 77.5231 131.744 78.7821C130.706 80.0359 129.545 81.2443 128.263 82.4073C127.012 83.5651 125.687 84.5713 124.287 85.4258C122.915 86.2431 121.526 86.768 120.122 87.0004C118.208 87.3173 116.634 87.0205 115.401 86.1098C114.195 85.162 113.431 83.7149 113.109 81.7684C112.908 80.5558 112.857 79.0563 112.955 77.2698C113.052 75.4833 113.23 73.5852 113.487 71.5755C113.771 69.5287 114.063 67.5297 114.363 65.5786C113.458 66.4496 112.516 67.6875 111.536 69.2923C110.582 70.8598 109.597 72.6294 108.579 74.601C107.556 76.5406 106.538 78.5122 105.525 80.5157C104.545 82.5139 103.575 84.3792 102.616 86.1116C101.683 87.8068 100.783 89.2016 99.9154 90.296C99.0475 91.3904 98.2465 91.9983 97.5126 92.1198ZM137.585 83.5198C136.978 83.6201 136.399 83.4866 135.846 83.119C135.288 82.7196 134.928 82.0253 134.764 81.0361C134.648 80.3341 134.582 79.345 134.568 78.0689C134.548 76.7608 134.574 75.3305 134.644 73.7779C134.715 72.2253 134.805 70.6861 134.913 69.1601C135.047 67.597 135.208 66.1934 135.396 64.9494C135.583 63.7053 135.773 62.7723 135.965 62.1504C136.147 61.6614 136.338 61.3346 136.541 61.17C136.775 61.0001 137.004 60.8967 137.227 60.8597C137.674 60.7858 138.08 60.866 138.447 61.1004C138.846 61.3294 139.114 61.8588 139.251 62.6885C139.33 63.1671 139.366 63.9807 139.36 65.1292C139.38 66.2406 139.368 67.5539 139.324 69.0693C139.306 70.5475 139.264 72.0788 139.199 73.6633C139.16 75.2106 139.11 76.6941 139.05 78.1137C138.99 79.5334 138.957 80.7191 138.951 81.6709C138.907 82.2026 138.75 82.6384 138.479 82.9784C138.234 83.2812 137.936 83.4617 137.585 83.5198ZM137.894 56.2743C137.16 56.3958 136.421 56.2886 135.677 55.9528C134.965 55.6117 134.527 54.9466 134.363 53.9574C134.226 53.1277 134.307 52.4259 134.605 51.852C134.935 51.2728 135.353 50.8266 135.859 50.5134C136.391 50.1631 136.864 49.9536 137.279 49.8849C137.694 49.8162 138.172 49.8354 138.715 49.9423C139.284 50.0121 139.799 50.2546 140.261 50.6698C140.718 51.0532 141.02 51.6916 141.168 52.5851C141.269 53.1914 141.151 53.7682 140.815 54.3155C140.475 54.8309 140.022 55.2664 139.458 55.622C138.926 55.9724 138.405 56.1898 137.894 56.2743ZM153.394 68.5106C153.107 68.5581 152.828 68.4568 152.557 68.2066C152.313 67.9192 152.148 67.5202 152.064 67.0096C151.948 66.3076 151.893 65.1856 151.9 63.6436C151.934 62.0644 152.007 60.2327 152.121 58.1484C152.262 56.027 152.453 53.8152 152.695 51.5131C152.969 49.2057 153.282 46.9409 153.636 44.7186C153.984 42.4645 154.372 40.4496 154.799 38.6741C155.093 37.4781 155.591 36.8219 156.293 36.7057C157.027 36.5843 157.755 36.8243 158.477 37.426C159.2 38.0277 159.646 38.839 159.815 39.8601C159.878 40.2431 159.805 40.9927 159.597 42.1091C159.42 43.2202 159.153 44.5759 158.795 46.176C158.469 47.7708 158.097 49.4879 157.68 51.3272C157.263 53.1665 156.836 55.0404 156.398 56.9488C155.986 58.82 155.607 60.5876 155.259 62.2515C154.912 63.9155 154.658 65.3509 154.497 66.5577C154.39 67.2967 154.259 67.7937 154.104 68.0488C153.95 68.3038 153.713 68.4578 153.394 68.5106ZM152.931 83.2416C152.452 83.3209 151.913 83.1315 151.313 82.6735C150.712 82.2156 150.275 81.157 150 79.4977C149.847 78.5723 150.036 77.8361 150.569 77.289C151.096 76.71 151.838 76.3412 152.795 76.1828C154.423 75.9134 155.376 76.6243 155.656 78.3155C155.788 79.1133 155.716 79.8629 155.438 80.5645C155.166 81.298 154.791 81.9011 154.312 82.3738C153.87 82.8731 153.41 83.1624 152.931 83.2416Z" fill="#555555"/>
</g>
<defs>
<filter id="filter0_d_1_11" x="0" y="3.07637" width="226.487" height="136.571" filterUnits="userSpaceOnUse" color-interpolation-filters="sRGB">
<feFlood flood-opacity="0" result="BackgroundImageFix"/>
<feColorMatrix in="SourceAlpha" type="matrix" values="0 0 0 0 0 0 0 0 0 0 0 0 0 0 0 0 0 0 127 0" result="hardAlpha"/>
<feOffset dy="4"/>
<feGaussianBlur stdDeviation="2"/>
<feComposite in2="hardAlpha" operator="out"/>
<feColorMatrix type="matrix" values="0 0 0 0 0 0 0 0 0 0 0 0 0 0 0 0 0 0 0.25 0"/>
<feBlend mode="normal" in2="BackgroundImageFix" result="effect1_dropShadow_1_11"/>
<feBlend mode="normal" in="SourceGraphic" in2="effect1_dropShadow_1_11" result="shape"/>
</filter>
<filter id="filter1_d_1_11" x="83.8238" y="35.4566" width="86.7965" height="65.3148" filterUnits="userSpaceOnUse" color-interpolation-filters="sRGB">
<feFlood flood-opacity="0" result="BackgroundImageFix"/>
<feColorMatrix in="SourceAlpha" type="matrix" values="0 0 0 0 0 0 0 0 0 0 0 0 0 0 0 0 0 0 127 0" result="hardAlpha"/>
<feOffset dy="4"/>
<feGaussianBlur stdDeviation="2"/>
<feComposite in2="hardAlpha" operator="out"/>
<feColorMatrix type="matrix" values="0 0 0 0 0 0 0 0 0 0 0 0 0 0 0 0 0 0 0.25 0"/>
<feBlend mode="normal" in2="BackgroundImageFix" result="effect1_dropShadow_1_11"/>
<feBlend mode="normal" in="SourceGraphic" in2="effect1_dropShadow_1_11" result="shape"/>
</filter>
</defs>
</svg>
