<svg width="309" height="72" viewBox="0 0 309 72" fill="none" xmlns="http://www.w3.org/2000/svg" xmlns:xlink="http://www.w3.org/1999/xlink">
<path d="M6.49825 70.1902C4.00127 70.1902 2.59714 67.3179 4.13091 65.3475L24.7432 38.8673C24.9518 38.5992 25.2045 38.3685 25.4904 38.1851L82.327 1.71584C82.8048 1.40925 83.3598 1.24454 83.9275 1.24082L129.309 0.944069L283.955 1.24651C298.756 1.54748 295.283 1.7426 304.197 4.90518C306.221 5.62328 306.959 8.14943 305.569 9.78584L274.639 46.1736C274.546 46.2824 274.446 46.3844 274.339 46.4789L248.351 69.4385C247.803 69.9229 247.096 70.1903 246.365 70.1903L6.49825 70.1902Z" fill="#C8C5C5"/>
<g id="Repeat group 1_inner" data-figma-trr="l8u0.8-0f">
<path d="M77.5151 14.3741C74.955 14.2535 73.7295 11.1704 75.4871 9.30505L81.8929 3.30829C82.4845 2.7545 83.2749 2.46357 84.0843 2.5017L85.5918 2.57273L102.063 2.57273C102.351 2.57273 102.637 2.63166 102.901 2.74589C104.033 3.23445 104.509 4.58361 103.933 5.67389L101.085 11.0738C100.891 11.441 100.623 11.7641 100.298 12.0224L97.1122 14.5547C96.5435 15.0067 95.83 15.237 95.1043 15.2029L77.5151 14.3741Z" fill="#404040"/>
<path d="M77.5151 14.3741C74.955 14.2535 73.7295 11.1704 75.4871 9.30505L81.8929 3.30829C82.4845 2.7545 83.2749 2.46357 84.0843 2.5017L85.5918 2.57273L102.063 2.57273C102.351 2.57273 102.637 2.63166 102.901 2.74589C104.033 3.23445 104.509 4.58361 103.933 5.67389L101.085 11.0738C100.891 11.441 100.623 11.7641 100.298 12.0224L97.1122 14.5547C96.5435 15.0067 95.83 15.237 95.1043 15.2029L77.5151 14.3741Z" fill="#404040"/>
</g>
<use xlink:href="#Repeat%20group%201_inner" transform="translate(27.2399)"/>
<use xlink:href="#Repeat%20group%201_inner" transform="translate(54.4797)"/>
<use xlink:href="#Repeat%20group%201_inner" transform="translate(81.7196)"/>
<use xlink:href="#Repeat%20group%201_inner" transform="translate(108.959)"/>
<use xlink:href="#Repeat%20group%201_inner" transform="translate(136.199)"/>
<use xlink:href="#Repeat%20group%201_inner" transform="translate(163.439)"/>
<use xlink:href="#Repeat%20group%201_inner" transform="translate(190.679)"/>
<g id="Repeat group 2_inner" data-figma-trr="l8u0.8-0f">
<path d="M61.5151 26.2637C58.955 26.1431 57.7295 23.06 59.4871 21.1946L65.8929 15.1978C66.4845 14.6441 67.2749 14.3531 68.0843 14.3913L69.5918 14.4623L86.0632 14.4623C86.3514 14.4623 86.6366 14.5212 86.9012 14.6354C88.0329 15.124 88.5085 16.4732 87.9334 17.5634L85.0846 22.9633C84.8908 23.3306 84.623 23.6536 84.2979 23.912L81.1122 26.4442C80.5435 26.8963 79.83 27.1266 79.1043 27.0924L61.5151 26.2637Z" fill="#404040"/>
</g>
<use xlink:href="#Repeat%20group%202_inner" transform="translate(27.2399)"/>
<use xlink:href="#Repeat%20group%202_inner" transform="translate(54.4797)"/>
<use xlink:href="#Repeat%20group%202_inner" transform="translate(81.7196)"/>
<use xlink:href="#Repeat%20group%202_inner" transform="translate(108.959)"/>
<use xlink:href="#Repeat%20group%202_inner" transform="translate(136.199)"/>
<use xlink:href="#Repeat%20group%202_inner" transform="translate(163.439)"/>
<use xlink:href="#Repeat%20group%202_inner" transform="translate(190.679)"/>
<g id="Repeat group 3_inner" data-figma-trr="l8u0.8-0f">
<path d="M61.5151 26.2637C58.955 26.1431 57.7295 23.06 59.4871 21.1946L65.8929 15.1978C66.4845 14.6441 67.2749 14.3531 68.0843 14.3913L69.5918 14.4623L86.0632 14.4623C86.3514 14.4623 86.6366 14.5212 86.9012 14.6354C88.0329 15.124 88.5085 16.4732 87.9334 17.5634L85.0846 22.9633C84.8908 23.3306 84.623 23.6536 84.2979 23.912L81.1122 26.4442C80.5435 26.8963 79.83 27.1266 79.1043 27.0924L61.5151 26.2637Z" fill="#404040"/>
</g>
<use xlink:href="#Repeat%20group%203_inner" transform="translate(27.2399)"/>
<use xlink:href="#Repeat%20group%203_inner" transform="translate(54.4797)"/>
<use xlink:href="#Repeat%20group%203_inner" transform="translate(81.7196)"/>
<use xlink:href="#Repeat%20group%203_inner" transform="translate(108.959)"/>
<use xlink:href="#Repeat%20group%203_inner" transform="translate(136.199)"/>
<use xlink:href="#Repeat%20group%203_inner" transform="translate(163.439)"/>
<use xlink:href="#Repeat%20group%203_inner" transform="translate(190.679)"/>
<g id="Repeat group 4_inner" data-figma-trr="l8u0.8-0f">
<path d="M45.5151 38.2637C42.955 38.1431 41.7295 35.06 43.4871 33.1946L49.8929 27.1978C50.4845 26.6441 51.2749 26.3531 52.0843 26.3913L53.5918 26.4623L70.0632 26.4623C70.3514 26.4623 70.6366 26.5212 70.9012 26.6354C72.0329 27.124 72.5085 28.4732 71.9334 29.5634L69.0846 34.9633C68.8908 35.3306 68.623 35.6536 68.2979 35.912L65.1122 38.4442C64.5435 38.8963 63.83 39.1266 63.1043 39.0924L45.5151 38.2637Z" fill="#404040"/>
</g>
<use xlink:href="#Repeat%20group%204_inner" transform="translate(27.2399)"/>
<use xlink:href="#Repeat%20group%204_inner" transform="translate(54.4797)"/>
<use xlink:href="#Repeat%20group%204_inner" transform="translate(81.7196)"/>
<use xlink:href="#Repeat%20group%204_inner" transform="translate(108.959)"/>
<use xlink:href="#Repeat%20group%204_inner" transform="translate(136.199)"/>
<use xlink:href="#Repeat%20group%204_inner" transform="translate(163.439)"/>
<use xlink:href="#Repeat%20group%204_inner" transform="translate(190.679)"/>
<g id="Repeat group 5_inner" data-figma-trr="l8u0.8-0f">
<path d="M45.5151 38.2637C42.955 38.1431 41.7295 35.06 43.4871 33.1946L49.8929 27.1978C50.4845 26.6441 51.2749 26.3531 52.0843 26.3913L53.5918 26.4623L70.0632 26.4623C70.3514 26.4623 70.6366 26.5212 70.9012 26.6354C72.0329 27.124 72.5085 28.4732 71.9334 29.5634L69.0846 34.9633C68.8908 35.3306 68.623 35.6536 68.2979 35.912L65.1122 38.4442C64.5435 38.8963 63.83 39.1266 63.1043 39.0924L45.5151 38.2637Z" fill="#404040"/>
</g>
<use xlink:href="#Repeat%20group%205_inner" transform="translate(27.2399)"/>
<use xlink:href="#Repeat%20group%205_inner" transform="translate(54.4797)"/>
<use xlink:href="#Repeat%20group%205_inner" transform="translate(81.7196)"/>
<use xlink:href="#Repeat%20group%205_inner" transform="translate(108.959)"/>
<use xlink:href="#Repeat%20group%205_inner" transform="translate(136.199)"/>
<use xlink:href="#Repeat%20group%205_inner" transform="translate(163.439)"/>
<use xlink:href="#Repeat%20group%205_inner" transform="translate(190.679)"/>
<g id="Repeat group 6_inner" data-figma-trr="l8u0.8-0f">
<path d="M32.5151 49.2637C29.955 49.1431 28.7295 46.06 30.4871 44.1946L36.8929 38.1978C37.4845 37.6441 38.2749 37.3531 39.0843 37.3913L40.5918 37.4623L57.0632 37.4623C57.3514 37.4623 57.6366 37.5212 57.9012 37.6354C59.0329 38.124 59.5085 39.4732 58.9334 40.5634L56.0846 45.9633C55.8908 46.3306 55.623 46.6536 55.2979 46.912L52.1122 49.4442C51.5435 49.8963 50.83 50.1266 50.1043 50.0924L32.5151 49.2637Z" fill="#404040"/>
</g>
<use xlink:href="#Repeat%20group%206_inner" transform="translate(27.2399)"/>
<use xlink:href="#Repeat%20group%206_inner" transform="translate(54.4797)"/>
<use xlink:href="#Repeat%20group%206_inner" transform="translate(81.7196)"/>
<use xlink:href="#Repeat%20group%206_inner" transform="translate(108.959)"/>
<use xlink:href="#Repeat%20group%206_inner" transform="translate(136.199)"/>
<use xlink:href="#Repeat%20group%206_inner" transform="translate(163.439)"/>
<use xlink:href="#Repeat%20group%206_inner" transform="translate(190.679)"/>
<g id="Repeat group 7_inner" data-figma-trr="l8u0.8-0f">
<path d="M32.5151 49.2637C29.955 49.1431 28.7295 46.06 30.4871 44.1946L36.8929 38.1978C37.4845 37.6441 38.2749 37.3531 39.0843 37.3913L40.5918 37.4623L57.0632 37.4623C57.3514 37.4623 57.6366 37.5212 57.9012 37.6354C59.0329 38.124 59.5085 39.4732 58.9334 40.5634L56.0846 45.9633C55.8908 46.3306 55.623 46.6536 55.2979 46.912L52.1122 49.4442C51.5435 49.8963 50.83 50.1266 50.1043 50.0924L32.5151 49.2637Z" fill="#404040"/>
</g>
<use xlink:href="#Repeat%20group%207_inner" transform="translate(27.2399)"/>
<use xlink:href="#Repeat%20group%207_inner" transform="translate(54.4797)"/>
<use xlink:href="#Repeat%20group%207_inner" transform="translate(81.7196)"/>
<use xlink:href="#Repeat%20group%207_inner" transform="translate(108.959)"/>
<use xlink:href="#Repeat%20group%207_inner" transform="translate(136.199)"/>
<use xlink:href="#Repeat%20group%207_inner" transform="translate(163.439)"/>
<use xlink:href="#Repeat%20group%207_inner" transform="translate(190.679)"/>
</svg>
