<svg width="97" height="127" viewBox="0 0 97 127" fill="none" xmlns="http://www.w3.org/2000/svg">
<path d="M69.1787 77.5001C82.6567 93.7715 83.4304 111.149 82.1326 117.804C65.8138 121.239 37.1751 108.571 21.5749 95.4018C2.07476 78.94 11.7286 40.2424 17.9363 36.8751C18.9947 33.6081 23.1597 26.1431 31.3521 22.4187C32.2005 22.033 32.8556 21.9201 33.3504 22.043C35.4792 16.8087 40.9239 5.97086 45.6727 4.49406C51.6088 2.64806 38.893 10.4259 34.2669 22.8091C36.8507 27.7974 25.449 54.2978 35.3495 62.3428C45.4443 62.4749 57.1895 63.026 69.1787 77.5001Z" fill="url(#paint0_linear_15_126)"/>
<path fill-rule="evenodd" clip-rule="evenodd" d="M18.0048 37.1213C19.0633 33.8544 23.1597 26.1431 31.3521 22.4187C32.2004 22.033 32.8556 21.9201 33.3504 22.043C33.7592 22.1445 34.0585 22.4069 34.2669 22.8092C35.1901 24.5915 34.3278 29.1203 33.2897 34.5723C31.4225 44.3788 28.9865 57.1724 35.3495 62.3428C35.0513 62.3389 34.7546 62.3354 34.4593 62.3319C30.7041 62.2872 27.1876 62.2453 23.9846 61.4903C14.3995 59.231 16.0272 44.385 18.0048 37.1213Z" fill="url(#paint1_linear_15_126)"/>
<path fill-rule="evenodd" clip-rule="evenodd" d="M18.0048 37.1213C19.0633 33.8544 23.1597 26.1431 31.3521 22.4187C32.2004 22.033 32.8556 21.9201 33.3504 22.043C33.7592 22.1445 34.0585 22.4069 34.2669 22.8092C35.1901 24.5915 34.3278 29.1203 33.2897 34.5723C31.4225 44.3788 28.9865 57.1724 35.3495 62.3428C35.0513 62.3389 34.7546 62.3354 34.4593 62.3319C30.7041 62.2872 27.1876 62.2453 23.9846 61.4903C14.3995 59.231 16.0272 44.385 18.0048 37.1213Z" fill="#221775" fill-opacity="0.2" style="mix-blend-mode:multiply"/>
<path d="M12.8506 45.6413C10.5751 59.4681 12.5139 89.2306 38.4735 97.6656C64.433 106.101 68.8786 114.369 67.8565 117.449L72.3582 111.145C65.0461 107.253 49.0398 98.9186 43.5108 96.7151C36.5995 93.9607 21.8524 91.3079 15.5557 70.3165C11.37 56.3627 12.356 47.4425 13.8741 43.3035C13.5361 44.0315 13.194 44.8125 12.8506 45.6413Z" fill="url(#paint2_linear_15_126)"/>
<path d="M12.8506 45.6413C10.5751 59.4681 12.5139 89.2306 38.4735 97.6656C64.433 106.101 68.8786 114.369 67.8565 117.449L72.3582 111.145C65.0461 107.253 49.0398 98.9186 43.5108 96.7151C36.5995 93.9607 21.8524 91.3079 15.5557 70.3165C11.37 56.3627 12.356 47.4425 13.8741 43.3035C13.5361 44.0315 13.194 44.8125 12.8506 45.6413Z" fill="#221775" fill-opacity="0.1" style="mix-blend-mode:multiply"/>
<defs>
<linearGradient id="paint0_linear_15_126" x1="55.9426" y1="5.42644" x2="63.48" y2="143.546" gradientUnits="userSpaceOnUse">
<stop stop-color="#91AF81"/>
<stop offset="0.5" stop-color="#95AD72"/>
<stop offset="1" stop-color="#6A7C60"/>
</linearGradient>
<linearGradient id="paint1_linear_15_126" x1="55.9426" y1="5.42644" x2="63.48" y2="143.546" gradientUnits="userSpaceOnUse">
<stop stop-color="#95AB89"/>
<stop offset="0.5" stop-color="#9AAA82"/>
<stop offset="1" stop-color="#7A9A68"/>
</linearGradient>
<linearGradient id="paint2_linear_15_126" x1="55.9426" y1="5.42644" x2="63.48" y2="143.546" gradientUnits="userSpaceOnUse">
<stop stop-color="#95AB89"/>
<stop offset="0.5" stop-color="#9AAA82"/>
<stop offset="1" stop-color="#7A9A68"/>
</linearGradient>
</defs>
</svg>
