<svg width="275" height="267" viewBox="0 0 275 267" fill="none" xmlns="http://www.w3.org/2000/svg">
<path d="M59.9475 120.511L126.948 133.511L101.447 265.511L54.9475 226.511L2.49999 251.041L59.9475 120.511Z" fill="#1D3251"/>
<path d="M127 121.519L155.5 89.5187L269.5 143.519L231.744 153.657L241.887 203.939L127 121.519Z" fill="#1D3251"/>
<g filter="url(#filter0_d_3_61)">
<path d="M166.686 35.6274L105.186 15.1274C77.2734 27.2266 53.771 16.5291 36.6286 25.5187L4 50.0187L6.99999 112.519L36.6286 137.782L82.186 154.627C130.73 144.765 146.5 137.782 179 118.519L184 50.0187L166.686 35.6274Z" fill="#8D7A1F"/>
</g>
<g filter="url(#filter1_d_3_61)">
<path d="M171 22.5187L109.5 2.01867C81.5873 14.1179 61.5444 9.15388 44.402 18.1435L11.4999 45.9222L18.1601 104.019L40.9425 124.674L86.4999 141.519C135.044 131.657 156.5 117.019 174.5 104.019L184.154 49.1286L171 22.5187Z" fill="#C7AE36"/>
</g>
<g filter="url(#filter2_i_3_61)">
<path d="M95.2706 38.2479L84.8308 46.3433L66.906 62.1463L66.3849 54.1633L81.7751 36.6235L90.4303 31.0479L95.2706 38.2479Z" fill="#6D5F17"/>
<path d="M147.654 86.0187L146.97 75.541L115.5 82.5187L95.2706 38.2479L84.8308 46.3433L98.6732 90.3743L73.6007 103.298L81.1621 111.671L147.654 86.0187Z" fill="#6D5F17"/>
</g>
<path d="M80.5301 159.207C80.5678 159.043 80.606 158.879 80.644 158.715C80.3266 158.602 80.0092 158.489 79.6917 158.377C79.6178 158.528 79.5441 158.679 79.4699 158.831C78.9834 159.821 78.5096 160.817 78.048 161.816C76.2018 165.815 74.553 169.884 73.0864 174.017C67.953 188.484 63.0733 203.04 58.4554 217.69C58.1256 218.736 57.7971 219.783 57.4699 220.831C57.416 221.003 57.3621 221.175 57.3082 221.348C57.6487 221.469 57.9891 221.589 58.3296 221.71C58.3965 221.542 58.4632 221.375 58.5301 221.207C58.9363 220.187 59.3411 219.168 59.7446 218.147C65.3933 203.864 70.7803 189.487 75.9136 175.02C77.3803 170.887 78.6648 166.689 79.752 162.421C80.0238 161.354 80.2832 160.283 80.5301 159.207Z" fill="#0A1628"/>
<path d="M52.6724 150.092C52.6949 150.036 52.7174 149.979 52.7398 149.922C52.6278 149.875 52.5157 149.827 52.4037 149.779C52.3783 149.834 52.3529 149.89 52.3276 149.945C51.6558 151.412 50.9879 152.881 50.3238 154.351C47.6677 160.232 45.0735 166.139 42.5402 172.072C33.6735 192.839 24.8901 213.641 16.1905 234.479C15.5691 235.968 14.9481 237.456 14.3276 238.945C14.3037 239.002 14.2799 239.059 14.256 239.117C14.37 239.165 14.484 239.214 14.598 239.263C14.6228 239.206 14.6476 239.149 14.6724 239.092C15.3186 237.614 15.9643 236.136 16.6095 234.658C25.6433 213.963 34.5932 193.232 43.4598 172.465C45.9932 166.532 48.4657 160.572 50.8762 154.587C51.4788 153.09 52.0776 151.592 52.6724 150.092Z" fill="#C7AE36"/>
<path d="M185.582 107.85C185.527 107.825 185.472 107.8 185.417 107.776C185.363 107.884 185.31 107.993 185.257 108.102C185.311 108.13 185.364 108.159 185.418 108.187C186.59 108.807 187.763 109.423 188.939 110.035C193.641 112.483 198.373 114.87 203.135 117.199C219.798 125.347 236.502 133.415 253.246 141.4C254.442 141.971 255.638 142.541 256.834 143.11C256.89 143.137 256.946 143.163 257.002 143.19C257.056 143.079 257.111 142.968 257.165 142.856C257.11 142.829 257.054 142.801 256.999 142.773C255.815 142.179 254.631 141.585 253.446 140.991C236.862 132.679 220.238 124.449 203.574 116.3C198.813 113.972 194.023 111.703 189.203 109.495C187.998 108.943 186.791 108.395 185.582 107.85Z" fill="#C7AE36"/>
<path d="M52.6724 150.092C52.6949 150.036 52.7174 149.979 52.7398 149.922C52.6278 149.875 52.5157 149.827 52.4037 149.779C52.3783 149.834 52.3529 149.89 52.3276 149.945C51.6558 151.412 50.9879 152.881 50.3238 154.351C47.6677 160.232 45.0735 166.139 42.5402 172.072C33.6735 192.839 24.8901 213.641 16.1905 234.479C15.5691 235.968 14.9481 237.456 14.3276 238.945C14.3037 239.002 14.2799 239.059 14.256 239.117C14.37 239.165 14.484 239.214 14.598 239.263C14.6228 239.206 14.6476 239.149 14.6724 239.092C15.3186 237.614 15.9643 236.136 16.6095 234.658C25.6433 213.963 34.5932 193.232 43.4598 172.465C45.9932 166.532 48.4657 160.572 50.8762 154.587C51.4788 153.09 52.0776 151.592 52.6724 150.092Z" fill="#C7AE36"/>
<path d="M117.135 157.101C117.157 157.002 117.179 156.902 117.201 156.803C117.004 156.75 116.808 156.698 116.611 156.645C116.58 156.742 116.55 156.839 116.519 156.936C116.027 158.5 115.559 160.012 115.089 161.575C113.229 167.74 111.52 173.995 109.997 180.264C104.621 202.231 100.509 224.465 96.6798 246.722C96.4003 248.343 96.1379 249.881 95.8608 251.504C95.8433 251.607 95.8257 251.71 95.8081 251.814C96.014 251.852 96.2199 251.89 96.4258 251.928C96.4464 251.826 96.467 251.723 96.4877 251.62C96.8112 250.006 97.1186 248.477 97.4414 246.864C101.879 224.717 106.285 202.584 111.649 180.665C113.169 174.408 114.658 168.111 116.077 161.836C116.437 160.244 116.781 158.701 117.135 157.101Z" fill="#C7AE36"/>
<path d="M153.206 134.749C153.118 134.699 153.029 134.648 152.941 134.597C152.832 134.769 152.723 134.941 152.614 135.113C152.698 135.171 152.781 135.23 152.865 135.288C154.214 136.228 155.505 137.123 156.857 138.049C162.173 141.698 167.543 145.264 172.962 148.782C191.924 161.022 210.44 173.909 228.631 187.294C229.956 188.267 231.214 189.19 232.54 190.166C232.624 190.228 232.709 190.291 232.793 190.353C232.92 190.186 233.046 190.019 233.173 189.852C233.09 189.788 233.008 189.723 232.925 189.659C231.628 188.644 230.397 187.684 229.097 186.676C211.274 172.794 192.876 159.612 173.887 147.356C168.462 143.834 162.966 140.453 157.405 137.187C155.991 136.356 154.632 135.569 153.206 134.749Z" fill="#C7AE36"/>
<path d="M180.119 123.528C179.965 123.469 179.812 123.409 179.659 123.35C179.499 123.637 179.338 123.924 179.178 124.211C179.309 124.311 179.44 124.41 179.571 124.51C180.276 125.05 180.989 125.578 181.708 126.095C184.583 128.162 187.561 130.044 190.633 131.758C201.384 137.759 212.265 143.526 223.283 149.049C224.07 149.444 224.858 149.837 225.646 150.229C225.807 150.309 225.967 150.389 226.127 150.468C226.302 150.156 226.476 149.843 226.651 149.53C226.499 149.436 226.347 149.341 226.195 149.247C225.447 148.781 224.699 148.317 223.95 147.855C213.466 141.375 202.846 135.14 192.095 129.139C189.023 127.424 185.858 125.877 182.59 124.514C181.773 124.174 180.949 123.845 180.119 123.528Z" fill="#0A1628"/>
<defs>
<filter id="filter0_d_3_61" x="0" y="15.1273" width="188" height="147.5" filterUnits="userSpaceOnUse" color-interpolation-filters="sRGB">
<feFlood flood-opacity="0" result="BackgroundImageFix"/>
<feColorMatrix in="SourceAlpha" type="matrix" values="0 0 0 0 0 0 0 0 0 0 0 0 0 0 0 0 0 0 127 0" result="hardAlpha"/>
<feOffset dy="4"/>
<feGaussianBlur stdDeviation="2"/>
<feComposite in2="hardAlpha" operator="out"/>
<feColorMatrix type="matrix" values="0 0 0 0 0 0 0 0 0 0 0 0 0 0 0 0 0 0 0.25 0"/>
<feBlend mode="normal" in2="BackgroundImageFix" result="effect1_dropShadow_3_61"/>
<feBlend mode="normal" in="SourceGraphic" in2="effect1_dropShadow_3_61" result="shape"/>
</filter>
<filter id="filter1_d_3_61" x="7.49988" y="2.01868" width="180.654" height="147.5" filterUnits="userSpaceOnUse" color-interpolation-filters="sRGB">
<feFlood flood-opacity="0" result="BackgroundImageFix"/>
<feColorMatrix in="SourceAlpha" type="matrix" values="0 0 0 0 0 0 0 0 0 0 0 0 0 0 0 0 0 0 127 0" result="hardAlpha"/>
<feOffset dy="4"/>
<feGaussianBlur stdDeviation="2"/>
<feComposite in2="hardAlpha" operator="out"/>
<feColorMatrix type="matrix" values="0 0 0 0 0 0 0 0 0 0 0 0 0 0 0 0 0 0 0.25 0"/>
<feBlend mode="normal" in2="BackgroundImageFix" result="effect1_dropShadow_3_61"/>
<feBlend mode="normal" in="SourceGraphic" in2="effect1_dropShadow_3_61" result="shape"/>
</filter>
<filter id="filter2_i_3_61" x="66.3849" y="31.0479" width="81.2689" height="84.6233" filterUnits="userSpaceOnUse" color-interpolation-filters="sRGB">
<feFlood flood-opacity="0" result="BackgroundImageFix"/>
<feBlend mode="normal" in="SourceGraphic" in2="BackgroundImageFix" result="shape"/>
<feColorMatrix in="SourceAlpha" type="matrix" values="0 0 0 0 0 0 0 0 0 0 0 0 0 0 0 0 0 0 127 0" result="hardAlpha"/>
<feOffset dy="4"/>
<feGaussianBlur stdDeviation="2"/>
<feComposite in2="hardAlpha" operator="arithmetic" k2="-1" k3="1"/>
<feColorMatrix type="matrix" values="0 0 0 0 0 0 0 0 0 0 0 0 0 0 0 0 0 0 0.25 0"/>
<feBlend mode="normal" in2="shape" result="effect1_innerShadow_3_61"/>
</filter>
</defs>
</svg>
