<svg width="73" height="66" viewBox="0 0 73 66" fill="none" xmlns="http://www.w3.org/2000/svg">
<path d="M9.83877 59.6643C8.64283 59.5646 7.61944 58.754 7.23184 57.6182C3.22417 45.8748 1.92851 43.6663 13.7281 30.1625C13.8569 30.0152 14.0051 29.8752 14.1602 29.7559L32.561 15.6022C38.6508 12.0018 39.5411 13.1439 52.5565 11.6542C53.3919 11.5586 54.2309 11.8116 54.8693 12.3588L66.6857 22.4871C67.4266 23.1222 67.8124 24.0779 67.7198 25.0493L66.9672 32.9527C66.9026 33.6307 66.6093 34.2665 66.1354 34.7556L51.6493 49.7091C51.4622 49.9021 51.2501 50.0692 51.0185 50.2058L32.6895 61.0152C32.1546 61.3306 31.5351 61.4723 30.9164 61.4207L9.83877 59.6643Z" fill="#C4C4C4"/>
<path d="M41.8709 25.2336C40.1162 24.2846 39.7593 21.9191 41.1559 20.4946L41.9967 19.6369L47.1835 14.6921C47.3877 14.4973 47.6185 14.3324 47.8689 14.2021L51.5068 12.3093C54.101 10.9596 56.6942 14.115 54.8674 16.3985L53.697 17.9424L48.8121 24.2745C48.6892 24.4338 48.5507 24.5803 48.3985 24.7118L47.0816 25.8499C46.1384 26.6651 44.7893 26.812 43.6927 26.2189L41.8709 25.2336Z" fill="#404040"/>
</svg>
