<svg width="343" height="307" viewBox="0 0 343 307" fill="none" xmlns="http://www.w3.org/2000/svg" xmlns:xlink="http://www.w3.org/1999/xlink">
<path d="M118.162 249.271L320.318 253.5L320.318 31.2905L136 31.2904L118.162 249.271Z" fill="#262626"/>
<path d="M126.552 242.499L328.709 246.728L328.709 24.5188L144.391 24.5187L126.552 242.499Z" fill="#262626"/>
<path d="M103.2 253.874L300.5 263.5L305.7 41.3739L123.7 41.3739L103.2 253.874Z" fill="#AAAAAA"/>
<path d="M266 5.5C280.255 5.5 291.5 16.6376 291.5 30C291.5 43.3624 280.255 54.5 266 54.5H265.173C249.136 54.3244 239.176 43.2135 240.472 30.5605L240.5 30.2812V30C240.5 16.6377 251.745 5.50007 266 5.5Z" stroke="url(#paint0_linear_5_170)" stroke-width="11"/>
<path d="M205.146 7.5C218.344 7.5 227.5 18.742 227.5 33.5166C227.5 40.7802 225.195 46.7576 221.438 50.8594C217.727 54.9094 212.273 57.5 205.146 57.5H204.322C188.38 57.3221 178.306 46.0757 179.618 33.0508L179.646 32.7764V32.5C179.646 18.7769 190.978 7.50007 205.146 7.5Z" stroke="url(#paint1_linear_5_170)" stroke-width="11"/>
<path d="M205.146 7.5C218.344 7.5 227.5 18.742 227.5 33.5166C227.5 40.7802 225.195 46.7576 221.438 50.8594C217.727 54.9094 212.273 57.5 205.146 57.5H204.322C188.38 57.3221 178.306 46.0757 179.618 33.0508L179.646 32.7764V32.5C179.646 18.7769 190.978 7.50007 205.146 7.5Z" stroke="black" stroke-opacity="0.2" stroke-width="11"/>
<path d="M205.146 7.5C218.344 7.5 227.5 18.742 227.5 33.5166C227.5 40.7802 225.195 46.7576 221.438 50.8594C217.727 54.9094 212.273 57.5 205.146 57.5H204.322C188.38 57.3221 178.306 46.0757 179.618 33.0508L179.646 32.7764V32.5C179.646 18.7769 190.978 7.50007 205.146 7.5Z" stroke="black" stroke-opacity="0.2" stroke-width="11"/>
<path d="M140.146 8.5C153.2 8.5 162 19.8264 162 34.5C162 41.663 159.799 47.3631 156.215 51.2188C152.677 55.0244 147.363 57.5 140.146 57.5H139.318C123.282 57.3244 113.322 46.2135 114.617 33.5605L114.646 33.2812V33C114.646 19.6377 125.891 8.50007 140.146 8.5Z" stroke="url(#paint2_linear_5_170)" stroke-width="11"/>
<path d="M140.146 8.5C153.2 8.5 162 19.8264 162 34.5C162 41.663 159.799 47.3631 156.215 51.2188C152.677 55.0244 147.363 57.5 140.146 57.5H139.318C123.282 57.3244 113.322 46.2135 114.617 33.5605L114.646 33.2812V33C114.646 19.6377 125.891 8.50007 140.146 8.5Z" stroke="black" stroke-opacity="0.2" stroke-width="11"/>
<g id="Repeat group 2_inner" data-figma-trr="l10u0.01-0f">
<path d="M79.9998 253.5L267.5 272.5L282.5 41L100.5 41L79.9998 253.5Z" fill="#C3C3C3"/>
</g>
<use xlink:href="#Repeat%20group%202_inner" transform="translate(2.30109)"/>
<use xlink:href="#Repeat%20group%202_inner" transform="translate(4.60218)"/>
<use xlink:href="#Repeat%20group%202_inner" transform="translate(6.90327)"/>
<use xlink:href="#Repeat%20group%202_inner" transform="translate(9.20436)"/>
<use xlink:href="#Repeat%20group%202_inner" transform="translate(11.5054)"/>
<use xlink:href="#Repeat%20group%202_inner" transform="translate(13.8065)"/>
<use xlink:href="#Repeat%20group%202_inner" transform="translate(16.1076)"/>
<use xlink:href="#Repeat%20group%202_inner" transform="translate(18.4087)"/>
<use xlink:href="#Repeat%20group%202_inner" transform="translate(20.7098)"/>
<path d="M75.4999 264L256.238 273.985L280.572 39L98.9293 50.3962L75.4999 264Z" fill="#C3C3C3"/>
<path d="M58 260.5L237 272L276 39H94L58 260.5Z" fill="#D9D9D9"/>
<path d="M184.532 52.7686C186.889 54.6841 190.353 54.3258 192.269 51.9683C194.184 49.6107 193.826 46.1468 191.468 44.2314L188 48.5L184.532 52.7686ZM180.238 29L174.981 27.3825L174.801 27.9678L174.754 28.5783L180.238 29ZM188 48.5L191.468 44.2314C189.336 42.4992 188.035 41.4748 187.051 40.5438C186.164 39.7042 185.911 39.2772 185.783 38.9844C185.641 38.6585 185.446 38.0156 185.401 36.458C185.355 34.855 185.47 32.6854 185.721 29.4218L180.238 29L174.754 28.5783C174.505 31.8147 174.341 34.5201 174.406 36.7764C174.473 39.0782 174.781 41.279 175.704 43.3906C176.642 45.5353 178.017 47.1395 179.492 48.5344C180.869 49.8377 182.664 51.2508 184.532 52.7686L188 48.5ZM180.238 29L185.494 30.6175C187.405 24.4086 189.503 20.3535 192.455 17.7498C195.257 15.2789 199.547 13.5 207.238 13.5V8V2.5C197.807 2.5 190.597 4.7211 185.179 9.50021C179.911 14.1465 177.07 20.5915 174.981 27.3825L180.238 29ZM207.238 8V13.5C210.597 13.5 212.922 14.2958 214.609 15.4028C216.32 16.5262 217.727 18.2028 218.855 20.4934C221.203 25.2573 222 31.9535 222 39H227.5H233C233 31.5465 232.226 22.7427 228.723 15.6316C226.926 11.9847 224.337 8.63004 220.644 6.20655C216.927 3.76673 212.439 2.5 207.238 2.5V8Z" fill="url(#paint3_linear_5_170)"/>
<path d="M118.64 52.7686C120.998 54.6841 124.462 54.3258 126.377 51.9683C128.293 49.6107 127.934 46.1468 125.577 44.2314L122.109 48.5L118.64 52.7686ZM114.346 29L109.089 27.3825L108.909 27.9678L108.862 28.5783L114.346 29ZM122.109 48.5L125.577 44.2314C123.445 42.4992 122.144 41.4748 121.16 40.5438C120.273 39.7042 120.02 39.2772 119.892 38.9844C119.749 38.6585 119.555 38.0156 119.51 36.458C119.464 34.855 119.579 32.6854 119.83 29.4218L114.346 29L108.862 28.5783C108.613 31.8147 108.449 34.5201 108.515 36.7764C108.581 39.0782 108.89 41.279 109.813 43.3906C110.751 45.5353 112.126 47.1395 113.6 48.5344C114.978 49.8377 116.772 51.2508 118.64 52.7686L122.109 48.5ZM114.346 29L119.603 30.6175C121.513 24.4086 123.612 20.3535 126.564 17.7498C129.365 15.2789 133.656 13.5 141.346 13.5V8V2.5C131.916 2.5 124.706 4.7211 119.288 9.50021C114.02 14.1465 111.179 20.5915 109.089 27.3825L114.346 29ZM141.346 8V13.5C144.706 13.5 147.03 14.2958 148.717 15.4028C150.429 16.5262 151.835 18.2028 152.964 20.4934C155.311 25.2573 156.109 31.9535 156.109 39H161.609H167.109C167.109 31.5465 166.335 22.7427 162.831 15.6316C161.034 11.9847 158.445 8.63004 154.753 6.20655C151.035 3.76673 146.547 2.5 141.346 2.5V8Z" fill="url(#paint4_linear_5_170)"/>
<path d="M254.92 54.768C257.829 55.6409 260.895 53.9899 261.768 51.0804C262.641 48.171 260.99 45.1048 258.08 44.232L256.5 49.5L254.92 54.768ZM241 26.5L235.743 24.8825L235.5 25.673V26.5H241ZM256.5 49.5L258.08 44.232C254.336 43.1087 251.895 42.2568 250.2 41.4135C248.606 40.6204 248.049 40.0154 247.754 39.5551C247.41 39.0202 247.019 38.0494 246.78 35.855C246.537 33.6239 246.5 30.7038 246.5 26.5H241H235.5C235.5 30.5805 235.525 34.115 235.845 37.0466C236.168 40.0149 236.839 42.9148 238.496 45.4964C240.201 48.1524 242.582 49.9096 245.3 51.262C247.918 52.5643 251.164 53.6413 254.92 54.768L256.5 49.5ZM241 26.5L246.257 28.1175C248.16 21.9313 250.243 18.034 253.145 15.5624C255.926 13.1942 260.228 11.5 268 11.5V6V0.5C258.651 0.5 251.453 2.55582 246.014 7.18765C240.696 11.716 237.84 18.0687 235.743 24.8825L241 26.5ZM268 6V11.5C274.68 11.5 279.221 14.4199 282.018 18.656C284.935 23.0722 286.133 29.2446 285.075 35.5958L290.5 36.5L295.925 37.4042C297.367 28.7554 295.875 19.6778 291.197 12.594C286.4 5.33005 278.44 0.5 268 0.5V6Z" fill="url(#paint5_linear_5_170)"/>
<g id="Repeat group 9_inner" data-figma-trr="l6u0.7-0f">
<path d="M99.7734 64.4361C122.329 65.0811 136.032 64.3825 153.945 64.8948C183.889 65.7511 214.369 67.6465 252.071 68.7247L251.832 72.5784L183.362 69.6209L97.5347 68.1657L99.7734 64.4361Z" fill="#171717"/>
<path d="M242.098 77.3991C220.135 76.4358 206.868 74.7629 189.425 73.9978C160.268 72.719 130.515 72.4382 93.8033 70.828L93.7663 74.689L160.509 76.6164L244.013 81.2788L242.098 77.3991Z" fill="#171717"/>
</g>
<use xlink:href="#Repeat%20group%209_inner" transform="translate(-0.677092 14.5751)"/>
<use xlink:href="#Repeat%20group%209_inner" transform="translate(-1.35418 29.1501)"/>
<use xlink:href="#Repeat%20group%209_inner" transform="translate(-2.03127 43.7252)"/>
<use xlink:href="#Repeat%20group%209_inner" transform="translate(-2.70837 58.3002)"/>
<use xlink:href="#Repeat%20group%209_inner" transform="translate(-3.38546 72.8753)"/>
<path d="M51.2519 113.807C58.1684 133.99 55.0172 152.128 45.1277 155.517C35.2382 158.906 25.2789 145.261 18.3624 125.079C20.3806 103.561 20.0377 91.8359 20.5818 83.8907C26.2399 88.4854 37.5767 100.118 51.2519 113.807Z" fill="#E5DAB4"/>
<path d="M33.8904 95.9941C36.5161 99.2256 33.5286 105.252 29.5897 106.601C28.3756 107.018 20.0225 102.348 19.9815 101.065C19.6576 90.9196 19.1294 87.9773 18.7221 84.8273C18.4221 82.5069 21.2183 81.3003 22.8141 83.0114C25.4382 85.8251 28.1563 88.9372 33.8904 95.9941Z" fill="#383838"/>
<path d="M83.1395 202.927C116.096 292.905 114.198 293.556 98.3747 298.978C75.1017 306.137 74.9806 306.975 45.7557 215.738C25.4248 152.268 17.4426 131.928 18.3624 125.079C19.6254 124.039 28.416 129.392 29.0146 121.606C31.7851 121.395 34.6209 121.755 36.9156 123.212C38.6121 122.618 38.0195 117.117 39.1821 116.719C41.1829 116.033 42.0217 118.51 44.8095 117.649C47.7422 116.743 46.6059 113.358 51.1266 113.442C53.6108 118.308 62.0664 132.58 83.1395 202.927Z" fill="#AF8833"/>
<defs>
<linearGradient id="paint0_linear_5_170" x1="266" y1="0" x2="266" y2="60" gradientUnits="userSpaceOnUse">
<stop offset="0.303103" stop-color="#5C5C5C"/>
<stop offset="0.487356" stop-color="#8F8F8F"/>
<stop offset="0.824095" stop-color="#5C5C5C"/>
</linearGradient>
<linearGradient id="paint1_linear_5_170" x1="205.146" y1="3" x2="205.146" y2="63" gradientUnits="userSpaceOnUse">
<stop offset="0.303103" stop-color="#5C5C5C"/>
<stop offset="0.487356" stop-color="#8F8F8F"/>
<stop offset="0.824095" stop-color="#5C5C5C"/>
</linearGradient>
<linearGradient id="paint2_linear_5_170" x1="140.146" y1="3" x2="140.146" y2="63" gradientUnits="userSpaceOnUse">
<stop offset="0.303103" stop-color="#5C5C5C"/>
<stop offset="0.487356" stop-color="#8F8F8F"/>
<stop offset="0.824095" stop-color="#5C5C5C"/>
</linearGradient>
<linearGradient id="paint3_linear_5_170" x1="205.238" y1="2.5" x2="205.238" y2="62.5" gradientUnits="userSpaceOnUse">
<stop offset="0.303103" stop-color="#5C5C5C"/>
<stop offset="0.487356" stop-color="#8F8F8F"/>
<stop offset="0.824095" stop-color="#5C5C5C"/>
</linearGradient>
<linearGradient id="paint4_linear_5_170" x1="139.347" y1="2.5" x2="139.347" y2="62.5" gradientUnits="userSpaceOnUse">
<stop offset="0.303103" stop-color="#5C5C5C"/>
<stop offset="0.487356" stop-color="#8F8F8F"/>
<stop offset="0.824095" stop-color="#5C5C5C"/>
</linearGradient>
<linearGradient id="paint5_linear_5_170" x1="266" y1="5.5494e-07" x2="266" y2="60" gradientUnits="userSpaceOnUse">
<stop offset="0.303103" stop-color="#5C5C5C"/>
<stop offset="0.487356" stop-color="#8F8F8F"/>
<stop offset="0.824095" stop-color="#5C5C5C"/>
</linearGradient>
</defs>
</svg>
