<svg width="286" height="324" viewBox="0 0 286 324" fill="none" xmlns="http://www.w3.org/2000/svg">
<path d="M63.7791 201.232C53.0485 214.911 32.8448 237.622 27.6978 247.898C27.1684 248.956 27.4624 250.198 28.3081 251.024L46.3183 268.615C47.4853 269.755 49.3493 269.754 50.5144 268.612L92.2782 227.679C93.059 226.914 94.1979 226.617 95.2108 227.029C105.813 231.333 116.532 245.998 123.28 256.651C124.115 257.968 125.815 258.447 127.206 257.741C169.132 236.452 203.873 215.715 234.57 195.478C236.951 193.909 235.981 190.234 233.138 190.024L158.316 184.478C155.841 184.295 154.226 187.024 155.579 189.105L163.035 200.576C163.957 201.994 163.525 203.893 162.08 204.773L142.639 216.617C141.487 217.319 140.007 217.165 139.024 216.241L122.405 200.615C121.129 199.416 121.148 197.384 122.444 196.207L187.644 137.058C188.64 136.155 190.114 136.024 191.253 136.738L204.698 145.167C206.313 146.179 208.451 145.445 209.108 143.656C220.345 113.074 227.671 93.1538 239.521 60.9452C240.411 58.5248 238.037 56.1769 235.63 57.1033L155.398 87.9821C153.565 88.6878 152.893 90.9362 154.039 92.532L163.827 106.159C164.686 107.355 164.55 108.999 163.504 110.037L97.7578 175.339C96.7012 176.388 95.0349 176.504 93.8437 175.61L80.0471 165.263C78.8323 164.352 78.4898 162.677 79.2496 161.362L92.2807 138.812C93.0108 137.549 94.544 136.994 95.9135 137.498L110.83 142.982C112.879 143.736 115.022 142.118 114.857 139.941L109.163 64.5846C108.94 61.6266 104.954 60.7122 103.415 63.2479C77.3221 106.231 27.6349 169.085 30.4996 170.765C40.7396 176.768 56.8917 188.841 63.8349 197.806C64.6203 198.82 64.5707 200.223 63.7791 201.232Z" fill="#1D3251" stroke="#C4B152" stroke-width="6" stroke-linejoin="bevel"/>
<path d="M202.418 132.666L226.918 76.6664L196.418 128.666L202.418 132.666Z" fill="#C4B152" stroke="#C4B152" stroke-width="2" stroke-linejoin="bevel"/>
<path d="M202.418 132.666L226.918 76.6664L196.418 128.666L202.418 132.666Z" fill="#C4B152"/>
<path d="M127.352 248.716L205.426 205.984L123.416 244.176L127.352 248.716Z" fill="#C4B152"/>
<path d="M205.606 206.313C205.486 206.094 205.366 205.874 205.246 205.655C202.495 207.066 199.747 208.485 197.003 209.91C186.028 215.613 175.117 221.433 164.271 227.37C151.804 234.193 139.348 241.033 126.9 247.89L128.064 248.1C126.747 246.59 125.431 245.08 124.114 243.571L123.806 245.013C148.305 233.51 172.773 221.943 197.212 210.312C200.003 208.984 202.794 207.654 205.585 206.324C205.479 206.097 205.374 205.871 205.268 205.644C202.454 206.924 199.64 208.205 196.827 209.486C172.197 220.706 147.597 231.99 123.026 243.339L122.719 244.781C124.026 246.298 125.333 247.816 126.641 249.333L127.804 249.542C140.289 242.753 152.765 235.947 165.231 229.124C176.078 223.187 186.86 217.134 197.579 210.963C200.259 209.42 202.935 207.87 205.606 206.313ZM205.246 205.655L205.606 206.313L205.268 205.644L205.585 206.324L205.246 205.655Z" fill="#C4B152"/>
<path d="M108.842 135.166L104.999 84.1664L102.918 133.166L108.842 135.166Z" fill="#C4B152" stroke="#C4B152" stroke-width="0.5" stroke-linejoin="bevel"/>
</svg>
